<svg width="438" height="40" viewBox="0 0 438 40" fill="none" xmlns="http://www.w3.org/2000/svg">
<g clip-path="url(#clip0_179_466)">
<path d="M6 20.1333L6 4.1333" stroke="#F26927" stroke-width="2" stroke-linecap="round" stroke-linejoin="round"/>
<path d="M12 20.1333L12 4.1333" stroke="#F26927" stroke-width="2" stroke-linecap="round" stroke-linejoin="round"/>
<path d="M18 20.1333V4.1333" stroke="#F26927" stroke-width="2" stroke-linecap="round" stroke-linejoin="round"/>
</g>
<g clip-path="url(#clip1_179_466)">
<path d="M24 20.1333V4.1333" stroke="#F26927" stroke-width="2" stroke-linecap="round" stroke-linejoin="round"/>
<path d="M30 20.1333V4.1333" stroke="#F26927" stroke-width="2" stroke-linecap="round" stroke-linejoin="round"/>
<path d="M36 20.1333V4.1333" stroke="#F26927" stroke-width="2" stroke-linecap="round" stroke-linejoin="round"/>
</g>
<g clip-path="url(#clip2_179_466)">
<path d="M42 20.1333V4.1333" stroke="#F26927" stroke-width="2" stroke-linecap="round" stroke-linejoin="round"/>
<path d="M48 20.1333V4.1333" stroke="#F26927" stroke-width="2" stroke-linecap="round" stroke-linejoin="round"/>
<path d="M54 20.1333V4.1333" stroke="#F26927" stroke-width="2" stroke-linecap="round" stroke-linejoin="round"/>
</g>
<g clip-path="url(#clip3_179_466)">
<path d="M60 20.1333V4.1333" stroke="#F26927" stroke-width="2" stroke-linecap="round" stroke-linejoin="round"/>
<path d="M66 20.1333V4.1333" stroke="#F26927" stroke-width="2" stroke-linecap="round" stroke-linejoin="round"/>
<path d="M72 20.1333V4.1333" stroke="#F26927" stroke-width="2" stroke-linecap="round" stroke-linejoin="round"/>
</g>
<g clip-path="url(#clip4_179_466)">
<path d="M78 20.1333V4.1333" stroke="#F26927" stroke-width="2" stroke-linecap="round" stroke-linejoin="round"/>
<path d="M84 20.1333V4.1333" stroke="#F26927" stroke-width="2" stroke-linecap="round" stroke-linejoin="round"/>
<path d="M90 20.1333V4.1333" stroke="#F26927" stroke-width="2" stroke-linecap="round" stroke-linejoin="round"/>
</g>
<g clip-path="url(#clip5_179_466)">
<path d="M96 20.1333V4.1333" stroke="#F26927" stroke-width="2" stroke-linecap="round" stroke-linejoin="round"/>
<path d="M102 20.1333V4.1333" stroke="#F26927" stroke-width="2" stroke-linecap="round" stroke-linejoin="round"/>
<path d="M108 20.1333V4.1333" stroke="#F26927" stroke-width="2" stroke-linecap="round" stroke-linejoin="round"/>
</g>
<g clip-path="url(#clip6_179_466)">
<path d="M168 20.1333V4.1333" stroke="#F26927" stroke-width="2" stroke-linecap="round" stroke-linejoin="round"/>
<path d="M174 20.1333V4.1333" stroke="#F26927" stroke-width="2" stroke-linecap="round" stroke-linejoin="round"/>
<path d="M180 20.1333V4.1333" stroke="#F26927" stroke-width="2" stroke-linecap="round" stroke-linejoin="round"/>
</g>
<g clip-path="url(#clip7_179_466)">
<path d="M186 20.1333V4.1333" stroke="#F26927" stroke-width="2" stroke-linecap="round" stroke-linejoin="round"/>
<path d="M192 20.1333V4.1333" stroke="#F26927" stroke-width="2" stroke-linecap="round" stroke-linejoin="round"/>
<path d="M198 20.1333V4.1333" stroke="#F26927" stroke-width="2" stroke-linecap="round" stroke-linejoin="round"/>
</g>
<g clip-path="url(#clip8_179_466)">
<path d="M204 20.1333V4.1333" stroke="#F26927" stroke-width="2" stroke-linecap="round" stroke-linejoin="round"/>
<path d="M210 20.1333V4.1333" stroke="#F26927" stroke-width="2" stroke-linecap="round" stroke-linejoin="round"/>
<path d="M216 20.1333V4.1333" stroke="#F26927" stroke-width="2" stroke-linecap="round" stroke-linejoin="round"/>
</g>
<g clip-path="url(#clip9_179_466)">
<path d="M222 20.1333V4.1333" stroke="#F26927" stroke-width="2" stroke-linecap="round" stroke-linejoin="round"/>
<path d="M228 20.1333V4.1333" stroke="#F26927" stroke-width="2" stroke-linecap="round" stroke-linejoin="round"/>
<path d="M234 20.1333V4.1333" stroke="#F26927" stroke-width="2" stroke-linecap="round" stroke-linejoin="round"/>
</g>
<g clip-path="url(#clip10_179_466)">
<path d="M240 20.1333V4.1333" stroke="#F26927" stroke-width="2" stroke-linecap="round" stroke-linejoin="round"/>
<path d="M246 20.1333V4.1333" stroke="#F26927" stroke-width="2" stroke-linecap="round" stroke-linejoin="round"/>
<path d="M252 20.1333V4.1333" stroke="#F26927" stroke-width="2" stroke-linecap="round" stroke-linejoin="round"/>
</g>
<g clip-path="url(#clip11_179_466)">
<path d="M258 20.1333V4.1333" stroke="#F26927" stroke-width="2" stroke-linecap="round" stroke-linejoin="round"/>
<path d="M264 20.1333V4.1333" stroke="#F26927" stroke-width="2" stroke-linecap="round" stroke-linejoin="round"/>
<path d="M270 20.1333V4.1333" stroke="#F26927" stroke-width="2" stroke-linecap="round" stroke-linejoin="round"/>
</g>
<g clip-path="url(#clip12_179_466)">
<path d="M276 20.1333V4.1333" stroke="#F26927" stroke-width="2" stroke-linecap="round" stroke-linejoin="round"/>
<path d="M282 20.1333V4.1333" stroke="#F26927" stroke-width="2" stroke-linecap="round" stroke-linejoin="round"/>
<path d="M288 20.1333V4.1333" stroke="#F26927" stroke-width="2" stroke-linecap="round" stroke-linejoin="round"/>
</g>
<g clip-path="url(#clip13_179_466)">
<path d="M294 20.1333V4.1333" stroke="#F26927" stroke-width="2" stroke-linecap="round" stroke-linejoin="round"/>
<path d="M300 20.1333V4.1333" stroke="#F26927" stroke-width="2" stroke-linecap="round" stroke-linejoin="round"/>
<path d="M306 20.1333V4.1333" stroke="#F26927" stroke-width="2" stroke-linecap="round" stroke-linejoin="round"/>
</g>
<g clip-path="url(#clip14_179_466)">
<path d="M312 20.1333V4.1333" stroke="#F26927" stroke-width="2" stroke-linecap="round" stroke-linejoin="round"/>
<path d="M318 20.1333V4.1333" stroke="#F26927" stroke-width="2" stroke-linecap="round" stroke-linejoin="round"/>
<path d="M324 20.1333V4.1333" stroke="#F26927" stroke-width="2" stroke-linecap="round" stroke-linejoin="round"/>
</g>
<g clip-path="url(#clip15_179_466)">
<path d="M330 20.1333V4.1333" stroke="#F26927" stroke-width="2" stroke-linecap="round" stroke-linejoin="round"/>
<path d="M336 20.1333V4.1333" stroke="#F26927" stroke-width="2" stroke-linecap="round" stroke-linejoin="round"/>
<path d="M342 20.1333V4.1333" stroke="#F26927" stroke-width="2" stroke-linecap="round" stroke-linejoin="round"/>
</g>
<g clip-path="url(#clip16_179_466)">
<path d="M348 20.1333V4.1333" stroke="#F26927" stroke-width="2" stroke-linecap="round" stroke-linejoin="round"/>
<path d="M354 20.1333V4.1333" stroke="#F26927" stroke-width="2" stroke-linecap="round" stroke-linejoin="round"/>
<path d="M360 20.1333V4.1333" stroke="#F26927" stroke-width="2" stroke-linecap="round" stroke-linejoin="round"/>
</g>
<g clip-path="url(#clip17_179_466)">
<path d="M366 20.1333V4.1333" stroke="#F26927" stroke-width="2" stroke-linecap="round" stroke-linejoin="round"/>
<path d="M372 20.1333V4.1333" stroke="#F26927" stroke-width="2" stroke-linecap="round" stroke-linejoin="round"/>
<path d="M378 20.1333V4.1333" stroke="#F26927" stroke-width="2" stroke-linecap="round" stroke-linejoin="round"/>
</g>
<g clip-path="url(#clip18_179_466)">
<path d="M384 20.1333V4.1333" stroke="#F26927" stroke-width="2" stroke-linecap="round" stroke-linejoin="round"/>
<path d="M390 20.1333V4.1333" stroke="#F26927" stroke-width="2" stroke-linecap="round" stroke-linejoin="round"/>
<path d="M396 20.1333V4.1333" stroke="#F26927" stroke-width="2" stroke-linecap="round" stroke-linejoin="round"/>
</g>
<g clip-path="url(#clip19_179_466)">
<path d="M402 20.1333V4.1333" stroke="#F26927" stroke-width="2" stroke-linecap="round" stroke-linejoin="round"/>
<path d="M408 20.1333V4.1333" stroke="#F26927" stroke-width="2" stroke-linecap="round" stroke-linejoin="round"/>
<path d="M414 20.1333V4.1333" stroke="#F26927" stroke-width="2" stroke-linecap="round" stroke-linejoin="round"/>
</g>
<g clip-path="url(#clip20_179_466)">
<path d="M420 20.1333V4.1333" stroke="#F26927" stroke-width="2" stroke-linecap="round" stroke-linejoin="round"/>
<path d="M426 20.1333V4.1333" stroke="#F26927" stroke-width="2" stroke-linecap="round" stroke-linejoin="round"/>
<path d="M432 20.1333V4.1333" stroke="#F26927" stroke-width="2" stroke-linecap="round" stroke-linejoin="round"/>
</g>
<g clip-path="url(#clip21_179_466)">
<path d="M114 20.1333V4.1333" stroke="#F26927" stroke-width="2" stroke-linecap="round" stroke-linejoin="round"/>
<path d="M120 20.1333V4.1333" stroke="#F26927" stroke-width="2" stroke-linecap="round" stroke-linejoin="round"/>
<path d="M126 20.1333V4.1333" stroke="#F26927" stroke-width="2" stroke-linecap="round" stroke-linejoin="round"/>
</g>
<g clip-path="url(#clip22_179_466)">
<path d="M132 20.1333V4.1333" stroke="#F26927" stroke-width="2" stroke-linecap="round" stroke-linejoin="round"/>
<path d="M138 20.1333V4.1333" stroke="#F26927" stroke-width="2" stroke-linecap="round" stroke-linejoin="round"/>
<path d="M144 20.1333V4.1333" stroke="#F26927" stroke-width="2" stroke-linecap="round" stroke-linejoin="round"/>
</g>
<g clip-path="url(#clip23_179_466)">
<path d="M150 20.1333V4.1333" stroke="#F26927" stroke-width="2" stroke-linecap="round" stroke-linejoin="round"/>
<path d="M156 20.1333V4.1333" stroke="#F26927" stroke-width="2" stroke-linecap="round" stroke-linejoin="round"/>
<path d="M162 20.1333V4.1333" stroke="#F26927" stroke-width="2" stroke-linecap="round" stroke-linejoin="round"/>
</g>
<path d="M8.372 37.2533C7.604 37.2533 6.992 37.0333 6.536 36.5933C6.08 36.1533 5.852 35.5653 5.852 34.8293V31.0373C5.852 30.3013 6.08 29.7173 6.536 29.2853C6.992 28.8453 7.604 28.6253 8.372 28.6253C9.148 28.6253 9.768 28.8453 10.232 29.2853C10.696 29.7253 10.928 30.3093 10.928 31.0373V34.8293C10.928 35.5653 10.696 36.1533 10.232 36.5933C9.768 37.0333 9.148 37.2533 8.372 37.2533ZM8.372 36.5093C8.884 36.5093 9.296 36.3613 9.608 36.0653C9.92 35.7693 10.076 35.3733 10.076 34.8773V31.0013C10.076 30.5133 9.92 30.1213 9.608 29.8253C9.304 29.5293 8.892 29.3813 8.372 29.3813C7.868 29.3813 7.464 29.5293 7.16 29.8253C6.856 30.1213 6.704 30.5133 6.704 31.0013V34.8773C6.704 35.3733 6.856 35.7693 7.16 36.0653C7.464 36.3613 7.868 36.5093 8.372 36.5093ZM14.6412 32.0333C14.3292 32.0333 14.0412 31.9573 13.7772 31.8053C13.5132 31.6533 13.3012 31.4493 13.1412 31.1933C12.9892 30.9293 12.9132 30.6413 12.9132 30.3293C12.9132 30.0173 12.9892 29.7333 13.1412 29.4773C13.3012 29.2133 13.5132 29.0053 13.7772 28.8533C14.0412 28.7013 14.3292 28.6253 14.6412 28.6253C14.9532 28.6253 15.2412 28.7013 15.5052 28.8533C15.7692 29.0053 15.9772 29.2133 16.1292 29.4773C16.2812 29.7333 16.3572 30.0173 16.3572 30.3293C16.3572 30.6413 16.2812 30.9293 16.1292 31.1933C15.9772 31.4493 15.7692 31.6533 15.5052 31.8053C15.2412 31.9573 14.9532 32.0333 14.6412 32.0333ZM14.3652 37.1333C14.3172 37.1333 14.2852 37.1213 14.2692 37.0973C14.2532 37.0653 14.2572 37.0293 14.2812 36.9893L18.8292 28.8173C18.8692 28.7613 18.9172 28.7333 18.9732 28.7333H19.3572C19.4052 28.7333 19.4372 28.7493 19.4532 28.7813C19.4692 28.8053 19.4652 28.8373 19.4412 28.8773L14.9052 37.0493C14.8812 37.1053 14.8332 37.1333 14.7612 37.1333H14.3652ZM14.6412 31.4813C14.9612 31.4813 15.2292 31.3693 15.4452 31.1453C15.6692 30.9213 15.7812 30.6493 15.7812 30.3293C15.7812 30.0093 15.6692 29.7373 15.4452 29.5133C15.2292 29.2893 14.9612 29.1773 14.6412 29.1773C14.3212 29.1773 14.0492 29.2893 13.8252 29.5133C13.6012 29.7293 13.4892 30.0013 13.4892 30.3293C13.4892 30.6493 13.6012 30.9213 13.8252 31.1453C14.0492 31.3693 14.3212 31.4813 14.6412 31.4813ZM19.1532 37.2413C18.8412 37.2413 18.5532 37.1653 18.2892 37.0133C18.0252 36.8613 17.8132 36.6533 17.6532 36.3893C17.5012 36.1253 17.4252 35.8373 17.4252 35.5253C17.4252 35.2213 17.5012 34.9413 17.6532 34.6853C17.8132 34.4213 18.0252 34.2133 18.2892 34.0613C18.5532 33.9093 18.8412 33.8333 19.1532 33.8333C19.4572 33.8333 19.7412 33.9093 20.0052 34.0613C20.2692 34.2133 20.4772 34.4213 20.6292 34.6853C20.7812 34.9413 20.8572 35.2213 20.8572 35.5253C20.8572 35.8373 20.7812 36.1253 20.6292 36.3893C20.4772 36.6533 20.2692 36.8613 20.0052 37.0133C19.7492 37.1653 19.4652 37.2413 19.1532 37.2413ZM19.1532 36.6893C19.4732 36.6893 19.7412 36.5773 19.9572 36.3533C20.1812 36.1293 20.2932 35.8533 20.2932 35.5253C20.2932 35.2053 20.1812 34.9373 19.9572 34.7213C19.7332 34.4973 19.4652 34.3853 19.1532 34.3853C18.8252 34.3853 18.5492 34.4973 18.3252 34.7213C18.1012 34.9373 17.9892 35.2053 17.9892 35.5253C17.9892 35.8533 18.1012 36.1293 18.3252 36.3533C18.5492 36.5773 18.8252 36.6893 19.1532 36.6893Z" fill="white"/>
<path d="M206.46 33.4613C206.532 33.8133 206.568 34.1733 206.568 34.5413C206.568 34.9333 206.532 35.2693 206.46 35.5493C206.324 36.0613 206.052 36.4693 205.644 36.7733C205.236 37.0693 204.744 37.2173 204.168 37.2173C203.6 37.2173 203.116 37.0733 202.716 36.7853C202.316 36.4973 202.044 36.1133 201.9 35.6333C201.844 35.4573 201.808 35.2813 201.792 35.1053V35.0813C201.792 35.0173 201.828 34.9853 201.9 34.9853H202.536C202.616 34.9853 202.66 35.0253 202.668 35.1053C202.668 35.1533 202.684 35.2333 202.716 35.3453C202.796 35.6893 202.96 35.9653 203.208 36.1733C203.464 36.3733 203.78 36.4733 204.156 36.4733C204.54 36.4733 204.86 36.3653 205.116 36.1493C205.38 35.9333 205.552 35.6373 205.632 35.2613C205.68 35.0773 205.704 34.8373 205.704 34.5413C205.704 34.2693 205.684 34.0093 205.644 33.7613C205.588 33.3933 205.428 33.1133 205.164 32.9213C204.9 32.7293 204.572 32.6333 204.18 32.6333C203.828 32.6333 203.512 32.7133 203.232 32.8733C202.952 33.0333 202.772 33.2453 202.692 33.5093C202.668 33.5813 202.624 33.6173 202.56 33.6173H201.912C201.832 33.6173 201.792 33.5773 201.792 33.4973V28.8533C201.792 28.7733 201.832 28.7333 201.912 28.7333H206.112C206.192 28.7333 206.232 28.7733 206.232 28.8533V29.3573C206.232 29.4373 206.192 29.4773 206.112 29.4773H202.692C202.66 29.4773 202.644 29.4933 202.644 29.5253L202.632 32.4293C202.632 32.4453 202.636 32.4573 202.644 32.4653C202.66 32.4733 202.676 32.4693 202.692 32.4533C202.892 32.2693 203.128 32.1293 203.4 32.0333C203.672 31.9293 203.96 31.8773 204.264 31.8773C204.832 31.8773 205.312 32.0173 205.704 32.2973C206.096 32.5693 206.348 32.9573 206.46 33.4613ZM210.536 37.2533C209.768 37.2533 209.156 37.0333 208.7 36.5933C208.244 36.1533 208.016 35.5653 208.016 34.8293V31.0373C208.016 30.3013 208.244 29.7173 208.7 29.2853C209.156 28.8453 209.768 28.6253 210.536 28.6253C211.312 28.6253 211.932 28.8453 212.396 29.2853C212.86 29.7253 213.092 30.3093 213.092 31.0373V34.8293C213.092 35.5653 212.86 36.1533 212.396 36.5933C211.932 37.0333 211.312 37.2533 210.536 37.2533ZM210.536 36.5093C211.048 36.5093 211.46 36.3613 211.772 36.0653C212.084 35.7693 212.24 35.3733 212.24 34.8773V31.0013C212.24 30.5133 212.084 30.1213 211.772 29.8253C211.468 29.5293 211.056 29.3813 210.536 29.3813C210.032 29.3813 209.628 29.5293 209.324 29.8253C209.02 30.1213 208.868 30.5133 208.868 31.0013V34.8773C208.868 35.3733 209.02 35.7693 209.324 36.0653C209.628 36.3613 210.032 36.5093 210.536 36.5093ZM216.805 32.0333C216.493 32.0333 216.205 31.9573 215.941 31.8053C215.677 31.6533 215.465 31.4493 215.305 31.1933C215.153 30.9293 215.077 30.6413 215.077 30.3293C215.077 30.0173 215.153 29.7333 215.305 29.4773C215.465 29.2133 215.677 29.0053 215.941 28.8533C216.205 28.7013 216.493 28.6253 216.805 28.6253C217.117 28.6253 217.405 28.7013 217.669 28.8533C217.933 29.0053 218.141 29.2133 218.293 29.4773C218.445 29.7333 218.521 30.0173 218.521 30.3293C218.521 30.6413 218.445 30.9293 218.293 31.1933C218.141 31.4493 217.933 31.6533 217.669 31.8053C217.405 31.9573 217.117 32.0333 216.805 32.0333ZM216.529 37.1333C216.481 37.1333 216.449 37.1213 216.433 37.0973C216.417 37.0653 216.421 37.0293 216.445 36.9893L220.993 28.8173C221.033 28.7613 221.081 28.7333 221.137 28.7333H221.521C221.569 28.7333 221.601 28.7493 221.617 28.7813C221.633 28.8053 221.629 28.8373 221.605 28.8773L217.069 37.0493C217.045 37.1053 216.997 37.1333 216.925 37.1333H216.529ZM216.805 31.4813C217.125 31.4813 217.393 31.3693 217.609 31.1453C217.833 30.9213 217.945 30.6493 217.945 30.3293C217.945 30.0093 217.833 29.7373 217.609 29.5133C217.393 29.2893 217.125 29.1773 216.805 29.1773C216.485 29.1773 216.213 29.2893 215.989 29.5133C215.765 29.7293 215.653 30.0013 215.653 30.3293C215.653 30.6493 215.765 30.9213 215.989 31.1453C216.213 31.3693 216.485 31.4813 216.805 31.4813ZM221.317 37.2413C221.005 37.2413 220.717 37.1653 220.453 37.0133C220.189 36.8613 219.977 36.6533 219.817 36.3893C219.665 36.1253 219.589 35.8373 219.589 35.5253C219.589 35.2213 219.665 34.9413 219.817 34.6853C219.977 34.4213 220.189 34.2133 220.453 34.0613C220.717 33.9093 221.005 33.8333 221.317 33.8333C221.621 33.8333 221.905 33.9093 222.169 34.0613C222.433 34.2133 222.641 34.4213 222.793 34.6853C222.945 34.9413 223.021 35.2213 223.021 35.5253C223.021 35.8373 222.945 36.1253 222.793 36.3893C222.641 36.6533 222.433 36.8613 222.169 37.0133C221.913 37.1653 221.629 37.2413 221.317 37.2413ZM221.317 36.6893C221.637 36.6893 221.905 36.5773 222.121 36.3533C222.345 36.1293 222.457 35.8533 222.457 35.5253C222.457 35.2053 222.345 34.9373 222.121 34.7213C221.897 34.4973 221.629 34.3853 221.317 34.3853C220.989 34.3853 220.713 34.4973 220.489 34.7213C220.265 34.9373 220.153 35.2053 220.153 35.5253C220.153 35.8533 220.265 36.1293 220.489 36.3533C220.713 36.5773 220.989 36.6893 221.317 36.6893Z" fill="white"/>
<path d="M304.812 37.1333C304.772 37.1333 304.74 37.1213 304.716 37.0973C304.7 37.0653 304.7 37.0293 304.716 36.9893L307.488 29.5373C307.496 29.5213 307.496 29.5093 307.488 29.5013C307.48 29.4853 307.468 29.4773 307.452 29.4773H304.212C304.18 29.4773 304.164 29.4933 304.164 29.5253V30.0773C304.164 30.1573 304.124 30.1973 304.044 30.1973H303.552C303.472 30.1973 303.432 30.1573 303.432 30.0773L303.444 28.8533C303.444 28.7733 303.484 28.7333 303.564 28.7333H308.292C308.372 28.7333 308.412 28.7733 308.412 28.8533V29.4053C308.412 29.4373 308.404 29.4853 308.388 29.5493L305.628 37.0373C305.604 37.1013 305.556 37.1333 305.484 37.1333H304.812ZM314.132 33.4613C314.204 33.8133 314.24 34.1733 314.24 34.5413C314.24 34.9333 314.204 35.2693 314.132 35.5493C313.996 36.0613 313.724 36.4693 313.316 36.7733C312.908 37.0693 312.416 37.2173 311.84 37.2173C311.272 37.2173 310.788 37.0733 310.388 36.7853C309.988 36.4973 309.716 36.1133 309.572 35.6333C309.516 35.4573 309.48 35.2813 309.464 35.1053V35.0813C309.464 35.0173 309.5 34.9853 309.572 34.9853H310.208C310.288 34.9853 310.332 35.0253 310.34 35.1053C310.34 35.1533 310.356 35.2333 310.388 35.3453C310.468 35.6893 310.632 35.9653 310.88 36.1733C311.136 36.3733 311.452 36.4733 311.828 36.4733C312.212 36.4733 312.532 36.3653 312.788 36.1493C313.052 35.9333 313.224 35.6373 313.304 35.2613C313.352 35.0773 313.376 34.8373 313.376 34.5413C313.376 34.2693 313.356 34.0093 313.316 33.7613C313.26 33.3933 313.1 33.1133 312.836 32.9213C312.572 32.7293 312.244 32.6333 311.852 32.6333C311.5 32.6333 311.184 32.7133 310.904 32.8733C310.624 33.0333 310.444 33.2453 310.364 33.5093C310.34 33.5813 310.296 33.6173 310.232 33.6173H309.584C309.504 33.6173 309.464 33.5773 309.464 33.4973V28.8533C309.464 28.7733 309.504 28.7333 309.584 28.7333H313.784C313.864 28.7333 313.904 28.7733 313.904 28.8533V29.3573C313.904 29.4373 313.864 29.4773 313.784 29.4773H310.364C310.332 29.4773 310.316 29.4933 310.316 29.5253L310.304 32.4293C310.304 32.4453 310.308 32.4573 310.316 32.4653C310.332 32.4733 310.348 32.4693 310.364 32.4533C310.564 32.2693 310.8 32.1293 311.072 32.0333C311.344 31.9293 311.632 31.8773 311.936 31.8773C312.504 31.8773 312.984 32.0173 313.376 32.2973C313.768 32.5693 314.02 32.9573 314.132 33.4613ZM317.692 32.0333C317.38 32.0333 317.092 31.9573 316.828 31.8053C316.564 31.6533 316.352 31.4493 316.192 31.1933C316.04 30.9293 315.964 30.6413 315.964 30.3293C315.964 30.0173 316.04 29.7333 316.192 29.4773C316.352 29.2133 316.564 29.0053 316.828 28.8533C317.092 28.7013 317.38 28.6253 317.692 28.6253C318.004 28.6253 318.292 28.7013 318.556 28.8533C318.82 29.0053 319.028 29.2133 319.18 29.4773C319.332 29.7333 319.408 30.0173 319.408 30.3293C319.408 30.6413 319.332 30.9293 319.18 31.1933C319.028 31.4493 318.82 31.6533 318.556 31.8053C318.292 31.9573 318.004 32.0333 317.692 32.0333ZM317.416 37.1333C317.368 37.1333 317.336 37.1213 317.32 37.0973C317.304 37.0653 317.308 37.0293 317.332 36.9893L321.88 28.8173C321.92 28.7613 321.968 28.7333 322.024 28.7333H322.408C322.456 28.7333 322.488 28.7493 322.504 28.7813C322.52 28.8053 322.516 28.8373 322.492 28.8773L317.956 37.0493C317.932 37.1053 317.884 37.1333 317.812 37.1333H317.416ZM317.692 31.4813C318.012 31.4813 318.28 31.3693 318.496 31.1453C318.72 30.9213 318.832 30.6493 318.832 30.3293C318.832 30.0093 318.72 29.7373 318.496 29.5133C318.28 29.2893 318.012 29.1773 317.692 29.1773C317.372 29.1773 317.1 29.2893 316.876 29.5133C316.652 29.7293 316.54 30.0013 316.54 30.3293C316.54 30.6493 316.652 30.9213 316.876 31.1453C317.1 31.3693 317.372 31.4813 317.692 31.4813ZM322.204 37.2413C321.892 37.2413 321.604 37.1653 321.34 37.0133C321.076 36.8613 320.864 36.6533 320.704 36.3893C320.552 36.1253 320.476 35.8373 320.476 35.5253C320.476 35.2213 320.552 34.9413 320.704 34.6853C320.864 34.4213 321.076 34.2133 321.34 34.0613C321.604 33.9093 321.892 33.8333 322.204 33.8333C322.508 33.8333 322.792 33.9093 323.056 34.0613C323.32 34.2133 323.528 34.4213 323.68 34.6853C323.832 34.9413 323.908 35.2213 323.908 35.5253C323.908 35.8373 323.832 36.1253 323.68 36.3893C323.528 36.6533 323.32 36.8613 323.056 37.0133C322.8 37.1653 322.516 37.2413 322.204 37.2413ZM322.204 36.6893C322.524 36.6893 322.792 36.5773 323.008 36.3533C323.232 36.1293 323.344 35.8533 323.344 35.5253C323.344 35.2053 323.232 34.9373 323.008 34.7213C322.784 34.4973 322.516 34.3853 322.204 34.3853C321.876 34.3853 321.6 34.4973 321.376 34.7213C321.152 34.9373 321.04 35.2053 321.04 35.5253C321.04 35.8533 321.152 36.1293 321.376 36.3533C321.6 36.5773 321.876 36.6893 322.204 36.6893Z" fill="white"/>
<path d="M101.824 36.3293C101.8 36.3693 101.808 36.3893 101.848 36.3893H105.616C105.696 36.3893 105.736 36.4293 105.736 36.5093V37.0133C105.736 37.0933 105.696 37.1333 105.616 37.1333H100.828C100.748 37.1333 100.708 37.0933 100.708 37.0133V36.5093C100.708 36.4533 100.728 36.4053 100.768 36.3653C101.04 36.0453 101.652 35.2933 102.604 34.1093L103.492 33.0053C104.244 32.0533 104.62 31.3133 104.62 30.7853C104.62 30.3613 104.476 30.0213 104.188 29.7653C103.9 29.5093 103.524 29.3813 103.06 29.3813C102.604 29.3813 102.236 29.5133 101.956 29.7773C101.676 30.0333 101.54 30.3733 101.548 30.7973V31.1693C101.548 31.2493 101.508 31.2893 101.428 31.2893H100.804C100.724 31.2893 100.684 31.2493 100.684 31.1693V30.6893C100.7 30.0733 100.928 29.5773 101.368 29.2013C101.816 28.8253 102.38 28.6373 103.06 28.6373C103.54 28.6373 103.964 28.7293 104.332 28.9133C104.7 29.0973 104.984 29.3533 105.184 29.6813C105.384 30.0013 105.484 30.3653 105.484 30.7733C105.484 31.4533 105.108 32.2733 104.356 33.2333C103.964 33.7373 103.208 34.6653 102.088 36.0173L101.824 36.3293ZM111.894 33.4613C111.966 33.8133 112.002 34.1733 112.002 34.5413C112.002 34.9333 111.966 35.2693 111.894 35.5493C111.758 36.0613 111.486 36.4693 111.078 36.7733C110.67 37.0693 110.178 37.2173 109.602 37.2173C109.034 37.2173 108.55 37.0733 108.15 36.7853C107.75 36.4973 107.478 36.1133 107.334 35.6333C107.278 35.4573 107.242 35.2813 107.226 35.1053V35.0813C107.226 35.0173 107.262 34.9853 107.334 34.9853H107.97C108.05 34.9853 108.094 35.0253 108.102 35.1053C108.102 35.1533 108.118 35.2333 108.15 35.3453C108.23 35.6893 108.394 35.9653 108.642 36.1733C108.898 36.3733 109.214 36.4733 109.59 36.4733C109.974 36.4733 110.294 36.3653 110.55 36.1493C110.814 35.9333 110.986 35.6373 111.066 35.2613C111.114 35.0773 111.138 34.8373 111.138 34.5413C111.138 34.2693 111.118 34.0093 111.078 33.7613C111.022 33.3933 110.862 33.1133 110.598 32.9213C110.334 32.7293 110.006 32.6333 109.614 32.6333C109.262 32.6333 108.946 32.7133 108.666 32.8733C108.386 33.0333 108.206 33.2453 108.126 33.5093C108.102 33.5813 108.058 33.6173 107.994 33.6173H107.346C107.266 33.6173 107.226 33.5773 107.226 33.4973V28.8533C107.226 28.7733 107.266 28.7333 107.346 28.7333H111.546C111.626 28.7333 111.666 28.7733 111.666 28.8533V29.3573C111.666 29.4373 111.626 29.4773 111.546 29.4773H108.126C108.094 29.4773 108.078 29.4933 108.078 29.5253L108.066 32.4293C108.066 32.4453 108.07 32.4573 108.078 32.4653C108.094 32.4733 108.11 32.4693 108.126 32.4533C108.326 32.2693 108.562 32.1293 108.834 32.0333C109.106 31.9293 109.394 31.8773 109.698 31.8773C110.266 31.8773 110.746 32.0173 111.138 32.2973C111.53 32.5693 111.782 32.9573 111.894 33.4613ZM115.454 32.0333C115.142 32.0333 114.854 31.9573 114.59 31.8053C114.326 31.6533 114.114 31.4493 113.954 31.1933C113.802 30.9293 113.726 30.6413 113.726 30.3293C113.726 30.0173 113.802 29.7333 113.954 29.4773C114.114 29.2133 114.326 29.0053 114.59 28.8533C114.854 28.7013 115.142 28.6253 115.454 28.6253C115.766 28.6253 116.054 28.7013 116.318 28.8533C116.582 29.0053 116.79 29.2133 116.942 29.4773C117.094 29.7333 117.17 30.0173 117.17 30.3293C117.17 30.6413 117.094 30.9293 116.942 31.1933C116.79 31.4493 116.582 31.6533 116.318 31.8053C116.054 31.9573 115.766 32.0333 115.454 32.0333ZM115.178 37.1333C115.13 37.1333 115.098 37.1213 115.082 37.0973C115.066 37.0653 115.07 37.0293 115.094 36.9893L119.642 28.8173C119.682 28.7613 119.73 28.7333 119.786 28.7333H120.17C120.218 28.7333 120.25 28.7493 120.266 28.7813C120.282 28.8053 120.278 28.8373 120.254 28.8773L115.718 37.0493C115.694 37.1053 115.646 37.1333 115.574 37.1333H115.178ZM115.454 31.4813C115.774 31.4813 116.042 31.3693 116.258 31.1453C116.482 30.9213 116.594 30.6493 116.594 30.3293C116.594 30.0093 116.482 29.7373 116.258 29.5133C116.042 29.2893 115.774 29.1773 115.454 29.1773C115.134 29.1773 114.862 29.2893 114.638 29.5133C114.414 29.7293 114.302 30.0013 114.302 30.3293C114.302 30.6493 114.414 30.9213 114.638 31.1453C114.862 31.3693 115.134 31.4813 115.454 31.4813ZM119.966 37.2413C119.654 37.2413 119.366 37.1653 119.102 37.0133C118.838 36.8613 118.626 36.6533 118.466 36.3893C118.314 36.1253 118.238 35.8373 118.238 35.5253C118.238 35.2213 118.314 34.9413 118.466 34.6853C118.626 34.4213 118.838 34.2133 119.102 34.0613C119.366 33.9093 119.654 33.8333 119.966 33.8333C120.27 33.8333 120.554 33.9093 120.818 34.0613C121.082 34.2133 121.29 34.4213 121.442 34.6853C121.594 34.9413 121.67 35.2213 121.67 35.5253C121.67 35.8373 121.594 36.1253 121.442 36.3893C121.29 36.6533 121.082 36.8613 120.818 37.0133C120.562 37.1653 120.278 37.2413 119.966 37.2413ZM119.966 36.6893C120.286 36.6893 120.554 36.5773 120.77 36.3533C120.994 36.1293 121.106 35.8533 121.106 35.5253C121.106 35.2053 120.994 34.9373 120.77 34.7213C120.546 34.4973 120.278 34.3853 119.966 34.3853C119.638 34.3853 119.362 34.4973 119.138 34.7213C118.914 34.9373 118.802 35.2053 118.802 35.5253C118.802 35.8533 118.914 36.1293 119.138 36.3533C119.362 36.5773 119.638 36.6893 119.966 36.6893Z" fill="white"/>
<path d="M406.16 28.7693C406.208 28.7453 406.26 28.7333 406.316 28.7333H406.964C407.044 28.7333 407.084 28.7733 407.084 28.8533V37.0133C407.084 37.0933 407.044 37.1333 406.964 37.1333H406.352C406.272 37.1333 406.232 37.0933 406.232 37.0133V29.7053C406.232 29.6893 406.224 29.6773 406.208 29.6693C406.2 29.6613 406.188 29.6613 406.172 29.6693L404.9 30.1853L404.852 30.1973C404.804 30.1973 404.772 30.1653 404.756 30.1013L404.696 29.6453V29.6213C404.696 29.5813 404.724 29.5413 404.78 29.5013L406.16 28.7693ZM411.567 37.2533C410.799 37.2533 410.187 37.0333 409.731 36.5933C409.275 36.1533 409.047 35.5653 409.047 34.8293V31.0373C409.047 30.3013 409.275 29.7173 409.731 29.2853C410.187 28.8453 410.799 28.6253 411.567 28.6253C412.343 28.6253 412.963 28.8453 413.427 29.2853C413.891 29.7253 414.123 30.3093 414.123 31.0373V34.8293C414.123 35.5653 413.891 36.1533 413.427 36.5933C412.963 37.0333 412.343 37.2533 411.567 37.2533ZM411.567 36.5093C412.079 36.5093 412.491 36.3613 412.803 36.0653C413.115 35.7693 413.271 35.3733 413.271 34.8773V31.0013C413.271 30.5133 413.115 30.1213 412.803 29.8253C412.499 29.5293 412.087 29.3813 411.567 29.3813C411.063 29.3813 410.659 29.5293 410.355 29.8253C410.051 30.1213 409.899 30.5133 409.899 31.0013V34.8773C409.899 35.3733 410.051 35.7693 410.355 36.0653C410.659 36.3613 411.063 36.5093 411.567 36.5093ZM418.352 37.2533C417.584 37.2533 416.972 37.0333 416.516 36.5933C416.06 36.1533 415.832 35.5653 415.832 34.8293V31.0373C415.832 30.3013 416.06 29.7173 416.516 29.2853C416.972 28.8453 417.584 28.6253 418.352 28.6253C419.128 28.6253 419.748 28.8453 420.212 29.2853C420.676 29.7253 420.908 30.3093 420.908 31.0373V34.8293C420.908 35.5653 420.676 36.1533 420.212 36.5933C419.748 37.0333 419.128 37.2533 418.352 37.2533ZM418.352 36.5093C418.864 36.5093 419.276 36.3613 419.588 36.0653C419.9 35.7693 420.056 35.3733 420.056 34.8773V31.0013C420.056 30.5133 419.9 30.1213 419.588 29.8253C419.284 29.5293 418.872 29.3813 418.352 29.3813C417.848 29.3813 417.444 29.5293 417.14 29.8253C416.836 30.1213 416.684 30.5133 416.684 31.0013V34.8773C416.684 35.3733 416.836 35.7693 417.14 36.0653C417.444 36.3613 417.848 36.5093 418.352 36.5093ZM424.622 32.0333C424.31 32.0333 424.022 31.9573 423.758 31.8053C423.494 31.6533 423.282 31.4493 423.122 31.1933C422.97 30.9293 422.894 30.6413 422.894 30.3293C422.894 30.0173 422.97 29.7333 423.122 29.4773C423.282 29.2133 423.494 29.0053 423.758 28.8533C424.022 28.7013 424.31 28.6253 424.622 28.6253C424.934 28.6253 425.222 28.7013 425.486 28.8533C425.75 29.0053 425.958 29.2133 426.11 29.4773C426.262 29.7333 426.338 30.0173 426.338 30.3293C426.338 30.6413 426.262 30.9293 426.11 31.1933C425.958 31.4493 425.75 31.6533 425.486 31.8053C425.222 31.9573 424.934 32.0333 424.622 32.0333ZM424.346 37.1333C424.298 37.1333 424.266 37.1213 424.25 37.0973C424.234 37.0653 424.238 37.0293 424.262 36.9893L428.81 28.8173C428.85 28.7613 428.898 28.7333 428.954 28.7333H429.338C429.386 28.7333 429.418 28.7493 429.434 28.7813C429.45 28.8053 429.446 28.8373 429.422 28.8773L424.886 37.0493C424.862 37.1053 424.814 37.1333 424.742 37.1333H424.346ZM424.622 31.4813C424.942 31.4813 425.21 31.3693 425.426 31.1453C425.65 30.9213 425.762 30.6493 425.762 30.3293C425.762 30.0093 425.65 29.7373 425.426 29.5133C425.21 29.2893 424.942 29.1773 424.622 29.1773C424.302 29.1773 424.03 29.2893 423.806 29.5133C423.582 29.7293 423.47 30.0013 423.47 30.3293C423.47 30.6493 423.582 30.9213 423.806 31.1453C424.03 31.3693 424.302 31.4813 424.622 31.4813ZM429.134 37.2413C428.822 37.2413 428.534 37.1653 428.27 37.0133C428.006 36.8613 427.794 36.6533 427.634 36.3893C427.482 36.1253 427.406 35.8373 427.406 35.5253C427.406 35.2213 427.482 34.9413 427.634 34.6853C427.794 34.4213 428.006 34.2133 428.27 34.0613C428.534 33.9093 428.822 33.8333 429.134 33.8333C429.438 33.8333 429.722 33.9093 429.986 34.0613C430.25 34.2133 430.458 34.4213 430.61 34.6853C430.762 34.9413 430.838 35.2213 430.838 35.5253C430.838 35.8373 430.762 36.1253 430.61 36.3893C430.458 36.6533 430.25 36.8613 429.986 37.0133C429.73 37.1653 429.446 37.2413 429.134 37.2413ZM429.134 36.6893C429.454 36.6893 429.722 36.5773 429.938 36.3533C430.162 36.1293 430.274 35.8533 430.274 35.5253C430.274 35.2053 430.162 34.9373 429.938 34.7213C429.714 34.4973 429.446 34.3853 429.134 34.3853C428.806 34.3853 428.53 34.4973 428.306 34.7213C428.082 34.9373 427.97 35.2053 427.97 35.5253C427.97 35.8533 428.082 36.1293 428.306 36.3533C428.53 36.5773 428.806 36.6893 429.134 36.6893Z" fill="white"/>
<defs>
<clipPath id="clip0_179_466">
<rect width="24" height="24" fill="white" transform="matrix(0 -1 1 0 0 24.1333)"/>
</clipPath>
<clipPath id="clip1_179_466">
<rect width="24" height="24" fill="white" transform="matrix(0 -1 1 0 18 24.1333)"/>
</clipPath>
<clipPath id="clip2_179_466">
<rect width="24" height="24" fill="white" transform="matrix(0 -1 1 0 36 24.1333)"/>
</clipPath>
<clipPath id="clip3_179_466">
<rect width="24" height="24" fill="white" transform="matrix(0 -1 1 0 54 24.1333)"/>
</clipPath>
<clipPath id="clip4_179_466">
<rect width="24" height="24" fill="white" transform="matrix(0 -1 1 0 72 24.1333)"/>
</clipPath>
<clipPath id="clip5_179_466">
<rect width="24" height="24" fill="white" transform="matrix(0 -1 1 0 90 24.1333)"/>
</clipPath>
<clipPath id="clip6_179_466">
<rect width="24" height="24" fill="white" transform="matrix(0 -1 1 0 162 24.1333)"/>
</clipPath>
<clipPath id="clip7_179_466">
<rect width="24" height="24" fill="white" transform="matrix(0 -1 1 0 180 24.1333)"/>
</clipPath>
<clipPath id="clip8_179_466">
<rect width="24" height="24" fill="white" transform="matrix(0 -1 1 0 198 24.1333)"/>
</clipPath>
<clipPath id="clip9_179_466">
<rect width="24" height="24" fill="white" transform="matrix(0 -1 1 0 216 24.1333)"/>
</clipPath>
<clipPath id="clip10_179_466">
<rect width="24" height="24" fill="white" transform="matrix(0 -1 1 0 234 24.1333)"/>
</clipPath>
<clipPath id="clip11_179_466">
<rect width="24" height="24" fill="white" transform="matrix(0 -1 1 0 252 24.1333)"/>
</clipPath>
<clipPath id="clip12_179_466">
<rect width="24" height="24" fill="white" transform="matrix(0 -1 1 0 270 24.1333)"/>
</clipPath>
<clipPath id="clip13_179_466">
<rect width="24" height="24" fill="white" transform="matrix(0 -1 1 0 288 24.1333)"/>
</clipPath>
<clipPath id="clip14_179_466">
<rect width="24" height="24" fill="white" transform="matrix(0 -1 1 0 306 24.1333)"/>
</clipPath>
<clipPath id="clip15_179_466">
<rect width="24" height="24" fill="white" transform="matrix(0 -1 1 0 324 24.1333)"/>
</clipPath>
<clipPath id="clip16_179_466">
<rect width="24" height="24" fill="white" transform="matrix(0 -1 1 0 342 24.1333)"/>
</clipPath>
<clipPath id="clip17_179_466">
<rect width="24" height="24" fill="white" transform="matrix(0 -1 1 0 360 24.1333)"/>
</clipPath>
<clipPath id="clip18_179_466">
<rect width="24" height="24" fill="white" transform="matrix(0 -1 1 0 378 24.1333)"/>
</clipPath>
<clipPath id="clip19_179_466">
<rect width="24" height="24" fill="white" transform="matrix(0 -1 1 0 396 24.1333)"/>
</clipPath>
<clipPath id="clip20_179_466">
<rect width="24" height="24" fill="white" transform="matrix(0 -1 1 0 414 24.1333)"/>
</clipPath>
<clipPath id="clip21_179_466">
<rect width="24" height="24" fill="white" transform="matrix(0 -1 1 0 108 24.1333)"/>
</clipPath>
<clipPath id="clip22_179_466">
<rect width="24" height="24" fill="white" transform="matrix(0 -1 1 0 126 24.1333)"/>
</clipPath>
<clipPath id="clip23_179_466">
<rect width="24" height="24" fill="white" transform="matrix(0 -1 1 0 144 24.1333)"/>
</clipPath>
</defs>
</svg>
