<svg width="407" height="50" viewBox="0 0 407 50" fill="none" xmlns="http://www.w3.org/2000/svg">
<circle cx="3.66667" cy="45.4666" r="3.66667" fill="#F26927"/>
<circle cx="22.7336" cy="45.4666" r="3.66667" fill="#F26927"/>
<circle cx="41.4333" cy="45.8333" r="3.3" fill="#F26927"/>
<circle cx="60.5002" cy="45.8333" r="3.3" fill="#F26927"/>
<circle cx="79.1999" cy="46.1999" r="2.93333" fill="#F26927"/>
<circle cx="98.2668" cy="46.1999" r="2.93333" fill="#F26927"/>
<circle cx="117.333" cy="46.1999" r="2.93333" fill="#F26927"/>
<circle cx="136.033" cy="46.5667" r="2.56667" fill="#F26927"/>
<circle cx="155.1" cy="46.5667" r="2.56667" fill="#F26927"/>
<circle cx="174.167" cy="46.5667" r="2.56667" fill="#F26927"/>
<circle cx="193.233" cy="46.5667" r="2.56667" fill="#F26927"/>
<circle cx="212.3" cy="46.5667" r="2.56667" fill="#F26927"/>
<circle cx="229.167" cy="47.3" r="1.83333" fill="#F26927"/>
<circle cx="246.766" cy="47.3" r="1.83333" fill="#F26927"/>
<circle cx="264.367" cy="47.3" r="1.83333" fill="#F26927"/>
<circle cx="281.967" cy="47.3" r="1.83333" fill="#F26927"/>
<circle cx="299.567" cy="47.3" r="1.83333" fill="#F26927"/>
<circle cx="317.167" cy="47.3" r="1.83333" fill="#F26927"/>
<circle cx="334.766" cy="47.3" r="1.83333" fill="#F26927"/>
<circle cx="352.367" cy="47.3" r="1.83333" fill="#F26927"/>
<circle cx="3.66667" cy="30.8" r="3.66667" fill="#F26927"/>
<circle cx="22.3669" cy="31.1666" r="3.3" fill="#F26927"/>
<circle cx="41.4333" cy="31.1666" r="3.3" fill="#F26927"/>
<circle cx="60.1335" cy="31.5333" r="2.93333" fill="#F26927"/>
<circle cx="79.1999" cy="31.5333" r="2.93333" fill="#F26927"/>
<circle cx="98.2668" cy="31.5333" r="2.93333" fill="#F26927"/>
<circle cx="116.967" cy="31.8999" r="2.56667" fill="#F26927"/>
<circle cx="136.033" cy="31.8999" r="2.56667" fill="#F26927"/>
<circle cx="155.1" cy="31.8999" r="2.56667" fill="#F26927"/>
<circle cx="174.167" cy="31.8999" r="2.56667" fill="#F26927"/>
<circle cx="192.867" cy="32.2667" r="2.2" fill="#F26927"/>
<circle cx="211.933" cy="32.2667" r="2.2" fill="#F26927"/>
<circle cx="229.167" cy="32.6333" r="1.83333" fill="#F26927"/>
<circle cx="246.766" cy="32.6333" r="1.83333" fill="#F26927"/>
<circle cx="264.367" cy="32.6333" r="1.83333" fill="#F26927"/>
<circle cx="281.967" cy="32.6333" r="1.83333" fill="#F26927"/>
<circle cx="299.567" cy="32.6333" r="1.83333" fill="#F26927"/>
<circle cx="317.167" cy="32.6333" r="1.83333" fill="#F26927"/>
<circle cx="334.766" cy="32.6333" r="1.83333" fill="#F26927"/>
<circle cx="352.367" cy="32.6333" r="1.83333" fill="#F26927"/>
<circle cx="3.3" cy="15.7667" r="3.3" fill="#F26927"/>
<circle cx="22.3669" cy="15.7667" r="3.3" fill="#F26927"/>
<circle cx="41.0666" cy="16.1333" r="2.93333" fill="#F26927"/>
<circle cx="60.1335" cy="16.1333" r="2.93333" fill="#F26927"/>
<circle cx="79.1999" cy="16.1333" r="2.93333" fill="#F26927"/>
<circle cx="97.9002" cy="16.5" r="2.56667" fill="#F26927"/>
<circle cx="116.967" cy="16.5" r="2.56667" fill="#F26927"/>
<circle cx="136.033" cy="16.5" r="2.56667" fill="#F26927"/>
<circle cx="155.1" cy="16.5" r="2.56667" fill="#F26927"/>
<circle cx="173.8" cy="16.8666" r="2.2" fill="#F26927"/>
<circle cx="192.867" cy="16.8666" r="2.2" fill="#F26927"/>
<circle cx="211.933" cy="16.8666" r="2.2" fill="#F26927"/>
<circle cx="229.167" cy="17.2334" r="1.83333" fill="#F26927"/>
<circle cx="246.766" cy="17.2334" r="1.83333" fill="#F26927"/>
<circle cx="264.367" cy="17.2334" r="1.83333" fill="#F26927"/>
<circle cx="281.967" cy="17.2334" r="1.83333" fill="#F26927"/>
<circle cx="299.567" cy="17.2334" r="1.83333" fill="#F26927"/>
<circle cx="317.167" cy="17.2334" r="1.83333" fill="#F26927"/>
<circle cx="334.766" cy="17.2334" r="1.83333" fill="#F26927"/>
<circle cx="352.367" cy="17.2334" r="1.83333" fill="#F26927"/>
<circle cx="3.3" cy="3.3" r="3.3" fill="#F26927"/>
<circle cx="22.0002" cy="3.66661" r="2.93333" fill="#F26927"/>
<circle cx="41.0666" cy="3.66661" r="2.93333" fill="#F26927"/>
<circle cx="60.1335" cy="3.66661" r="2.93333" fill="#F26927"/>
<circle cx="78.8333" cy="4.03334" r="2.56667" fill="#F26927"/>
<circle cx="97.9002" cy="4.03334" r="2.56667" fill="#F26927"/>
<circle cx="116.967" cy="4.03334" r="2.56667" fill="#F26927"/>
<circle cx="136.033" cy="4.03334" r="2.56667" fill="#F26927"/>
<circle cx="154.733" cy="4.39995" r="2.2" fill="#F26927"/>
<circle cx="173.8" cy="4.39995" r="2.2" fill="#F26927"/>
<circle cx="192.867" cy="4.39995" r="2.2" fill="#F26927"/>
<circle cx="211.933" cy="4.39995" r="2.2" fill="#F26927"/>
<circle cx="229.167" cy="4.76668" r="1.83333" fill="#F26927"/>
<circle cx="246.766" cy="4.76668" r="1.83333" fill="#F26927"/>
<circle cx="264.367" cy="4.76668" r="1.83333" fill="#F26927"/>
<circle cx="281.967" cy="4.76668" r="1.83333" fill="#F26927"/>
<circle cx="299.567" cy="4.76668" r="1.83333" fill="#F26927"/>
<circle cx="317.167" cy="4.76668" r="1.83333" fill="#F26927"/>
<circle cx="334.766" cy="4.76668" r="1.83333" fill="#F26927"/>
<circle cx="352.367" cy="4.76668" r="1.83333" fill="#F26927"/>
<circle cx="369.967" cy="47.3" r="1.83333" fill="#F26927"/>
<circle cx="369.967" cy="32.6333" r="1.83333" fill="#F26927"/>
<circle cx="369.967" cy="17.2334" r="1.83333" fill="#F26927"/>
<circle cx="369.967" cy="4.76668" r="1.83333" fill="#F26927"/>
<circle cx="387.567" cy="47.3" r="1.83333" fill="#F26927"/>
<circle cx="387.567" cy="32.6333" r="1.83333" fill="#F26927"/>
<circle cx="387.567" cy="17.2334" r="1.83333" fill="#F26927"/>
<circle cx="387.567" cy="4.76668" r="1.83333" fill="#F26927"/>
<circle cx="405.167" cy="47.3" r="1.83333" fill="#F26927"/>
<circle cx="405.167" cy="32.6333" r="1.83333" fill="#F26927"/>
<circle cx="405.167" cy="17.2334" r="1.83333" fill="#F26927"/>
<circle cx="405.167" cy="4.76668" r="1.83333" fill="#F26927"/>
</svg>
